<svg width="243" height="35" viewBox="0 0 243 35" fill="none" xmlns="http://www.w3.org/2000/svg">
<path d="M0.637784 5.3821V0.818181H22.1406V5.3821H14.125V27H8.65341V5.3821H0.637784ZM23.5405 27V7.36364H28.8203V10.7898H29.0249C29.3828 9.57102 29.9837 8.65057 30.8274 8.02841C31.6712 7.39773 32.6428 7.08239 33.7422 7.08239C34.0149 7.08239 34.3089 7.09943 34.6243 7.13352C34.9396 7.16761 35.2166 7.21449 35.4553 7.27415V12.1065C35.1996 12.0298 34.8459 11.9616 34.3942 11.902C33.9425 11.8423 33.5291 11.8125 33.1541 11.8125C32.353 11.8125 31.6371 11.9872 31.0064 12.3366C30.3842 12.6776 29.8899 13.1548 29.5234 13.7685C29.1655 14.3821 28.9865 15.0895 28.9865 15.8906V27H23.5405ZM43.3079 27.3707C42.055 27.3707 40.9386 27.1534 39.9585 26.7188C38.9783 26.2756 38.2028 25.6236 37.6317 24.7628C37.0692 23.8935 36.788 22.8111 36.788 21.5156C36.788 20.4247 36.9883 19.5085 37.3888 18.767C37.7894 18.0256 38.3349 17.429 39.0252 16.9773C39.7156 16.5256 40.4996 16.1847 41.3775 15.9545C42.2638 15.7244 43.1928 15.5625 44.1644 15.4688C45.3065 15.3494 46.2269 15.2386 46.9258 15.1364C47.6246 15.0256 48.1317 14.8636 48.4471 14.6506C48.7624 14.4375 48.9201 14.1222 48.9201 13.7045V13.6278C48.9201 12.8182 48.6644 12.1918 48.1531 11.7486C47.6502 11.3054 46.9343 11.0838 46.0053 11.0838C45.0252 11.0838 44.2454 11.3011 43.6658 11.7358C43.0863 12.1619 42.7028 12.6989 42.5153 13.3466L37.4783 12.9375C37.734 11.7443 38.2369 10.7131 38.9869 9.84375C39.7369 8.96591 40.7042 8.29261 41.8888 7.82386C43.082 7.34659 44.4627 7.10795 46.0309 7.10795C47.1218 7.10795 48.1658 7.2358 49.163 7.49148C50.1687 7.74716 51.0593 8.14347 51.8349 8.6804C52.619 9.21733 53.2369 9.90767 53.6886 10.7514C54.1403 11.5866 54.3661 12.5881 54.3661 13.7557V27H49.2014V24.277H49.0479C48.7326 24.8906 48.3107 25.4318 47.7823 25.9006C47.2539 26.3608 46.619 26.723 45.8775 26.9872C45.136 27.2429 44.2795 27.3707 43.3079 27.3707ZM44.8675 23.6122C45.6687 23.6122 46.3761 23.4545 46.9897 23.1392C47.6033 22.8153 48.0849 22.3807 48.4343 21.8352C48.7837 21.2898 48.9585 20.6719 48.9585 19.9815V17.8977C48.788 18.0085 48.5536 18.1108 48.2553 18.2045C47.9656 18.2898 47.6374 18.3707 47.271 18.4474C46.9045 18.5156 46.538 18.5795 46.1715 18.6392C45.805 18.6903 45.4727 18.7372 45.1744 18.7798C44.5352 18.8736 43.9769 19.0227 43.4996 19.2273C43.0224 19.4318 42.6516 19.7088 42.3874 20.0582C42.1232 20.3991 41.9911 20.8253 41.9911 21.3366C41.9911 22.0781 42.2596 22.6449 42.7965 23.0369C43.342 23.4205 44.0323 23.6122 44.8675 23.6122ZM64.0373 15.6477V27H58.5913V7.36364H63.7816V10.8281H64.0117C64.4464 9.68608 65.1751 8.78267 66.1978 8.1179C67.2205 7.4446 68.4606 7.10795 69.918 7.10795C71.2816 7.10795 72.4705 7.40625 73.4847 8.00284C74.4989 8.59943 75.2873 9.4517 75.8498 10.5597C76.4123 11.6591 76.6935 12.9716 76.6935 14.4972V27H71.2475V15.4688C71.256 14.267 70.9492 13.3295 70.3271 12.6562C69.7049 11.9744 68.8484 11.6335 67.7575 11.6335C67.0245 11.6335 66.3768 11.7912 65.8143 12.1065C65.2603 12.4219 64.8256 12.8821 64.5103 13.4872C64.2035 14.0838 64.0458 14.804 64.0373 15.6477ZM97.3239 12.9631L92.3381 13.2699C92.2528 12.8437 92.0696 12.4602 91.7884 12.1193C91.5071 11.7699 91.1364 11.4929 90.6761 11.2884C90.2244 11.0753 89.6832 10.9688 89.0526 10.9688C88.2088 10.9688 87.4972 11.1477 86.9176 11.5057C86.3381 11.8551 86.0483 12.3239 86.0483 12.9119C86.0483 13.3807 86.2358 13.777 86.6108 14.1009C86.9858 14.4247 87.6293 14.6847 88.5412 14.8807L92.0952 15.5966C94.0043 15.9886 95.4276 16.6193 96.3651 17.4886C97.3026 18.358 97.7713 19.5 97.7713 20.9148C97.7713 22.2017 97.392 23.331 96.6335 24.3026C95.8835 25.2741 94.8523 26.0327 93.5398 26.5781C92.2358 27.1151 90.7315 27.3835 89.027 27.3835C86.4276 27.3835 84.3565 26.8423 82.8139 25.7599C81.2798 24.669 80.3807 23.1861 80.1165 21.3111L85.473 21.0298C85.6349 21.8224 86.027 22.4276 86.6491 22.8452C87.2713 23.2543 88.0682 23.4588 89.0398 23.4588C89.9943 23.4588 90.7614 23.2756 91.3409 22.9091C91.929 22.5341 92.2273 22.0526 92.2358 21.4645C92.2273 20.9702 92.0185 20.5653 91.6094 20.25C91.2003 19.9261 90.5696 19.679 89.7173 19.5085L86.3168 18.831C84.3991 18.4474 82.9716 17.7827 82.0341 16.8366C81.1051 15.8906 80.6406 14.6847 80.6406 13.2188C80.6406 11.9574 80.9815 10.8707 81.6634 9.95881C82.3537 9.04688 83.321 8.34375 84.5653 7.84943C85.8182 7.35511 87.2841 7.10795 88.9631 7.10795C91.4432 7.10795 93.3949 7.6321 94.8182 8.6804C96.25 9.72869 97.0852 11.1562 97.3239 12.9631ZM101.201 34.3636V7.36364H106.57V10.6619H106.813C107.051 10.1335 107.397 9.59659 107.848 9.05114C108.309 8.49716 108.905 8.03693 109.638 7.67045C110.38 7.29545 111.3 7.10795 112.4 7.10795C113.831 7.10795 115.152 7.48295 116.363 8.23295C117.573 8.97443 118.54 10.0952 119.265 11.5952C119.989 13.0866 120.351 14.9574 120.351 17.2074C120.351 19.3977 119.998 21.2472 119.29 22.7557C118.591 24.2557 117.637 25.3935 116.426 26.169C115.225 26.9361 113.878 27.3196 112.387 27.3196C111.33 27.3196 110.431 27.1449 109.689 26.7955C108.956 26.446 108.355 26.0071 107.887 25.4787C107.418 24.9418 107.06 24.4006 106.813 23.8551H106.647V34.3636H101.201ZM106.532 17.1818C106.532 18.3494 106.694 19.3679 107.017 20.2372C107.341 21.1065 107.81 21.7841 108.424 22.2699C109.037 22.7472 109.783 22.9858 110.661 22.9858C111.547 22.9858 112.297 22.7429 112.911 22.2571C113.525 21.7628 113.989 21.081 114.304 20.2116C114.628 19.3338 114.79 18.3239 114.79 17.1818C114.79 16.0483 114.632 15.0511 114.317 14.1903C114.002 13.3295 113.537 12.6562 112.924 12.1705C112.31 11.6847 111.556 11.4418 110.661 11.4418C109.775 11.4418 109.025 11.6761 108.411 12.1449C107.806 12.6136 107.341 13.2784 107.017 14.1392C106.694 15 106.532 16.0142 106.532 17.1818ZM129.581 27.3707C128.328 27.3707 127.212 27.1534 126.232 26.7188C125.252 26.2756 124.476 25.6236 123.905 24.7628C123.343 23.8935 123.061 22.8111 123.061 21.5156C123.061 20.4247 123.262 19.5085 123.662 18.767C124.063 18.0256 124.608 17.429 125.299 16.9773C125.989 16.5256 126.773 16.1847 127.651 15.9545C128.537 15.7244 129.466 15.5625 130.438 15.4688C131.58 15.3494 132.5 15.2386 133.199 15.1364C133.898 15.0256 134.405 14.8636 134.721 14.6506C135.036 14.4375 135.194 14.1222 135.194 13.7045V13.6278C135.194 12.8182 134.938 12.1918 134.426 11.7486C133.924 11.3054 133.208 11.0838 132.279 11.0838C131.299 11.0838 130.519 11.3011 129.939 11.7358C129.36 12.1619 128.976 12.6989 128.789 13.3466L123.752 12.9375C124.007 11.7443 124.51 10.7131 125.26 9.84375C126.01 8.96591 126.978 8.29261 128.162 7.82386C129.355 7.34659 130.736 7.10795 132.304 7.10795C133.395 7.10795 134.439 7.2358 135.436 7.49148C136.442 7.74716 137.333 8.14347 138.108 8.6804C138.892 9.21733 139.51 9.90767 139.962 10.7514C140.414 11.5866 140.64 12.5881 140.64 13.7557V27H135.475V24.277H135.321C135.006 24.8906 134.584 25.4318 134.056 25.9006C133.527 26.3608 132.892 26.723 132.151 26.9872C131.409 27.2429 130.553 27.3707 129.581 27.3707ZM131.141 23.6122C131.942 23.6122 132.65 23.4545 133.263 23.1392C133.877 22.8153 134.358 22.3807 134.708 21.8352C135.057 21.2898 135.232 20.6719 135.232 19.9815V17.8977C135.061 18.0085 134.827 18.1108 134.529 18.2045C134.239 18.2898 133.911 18.3707 133.544 18.4474C133.178 18.5156 132.811 18.5795 132.445 18.6392C132.078 18.6903 131.746 18.7372 131.448 18.7798C130.809 18.8736 130.25 19.0227 129.773 19.2273C129.296 19.4318 128.925 19.7088 128.661 20.0582C128.397 20.3991 128.265 20.8253 128.265 21.3366C128.265 22.0781 128.533 22.6449 129.07 23.0369C129.615 23.4205 130.306 23.6122 131.141 23.6122ZM144.865 27V7.36364H150.145V10.7898H150.349C150.707 9.57102 151.308 8.65057 152.152 8.02841C152.995 7.39773 153.967 7.08239 155.066 7.08239C155.339 7.08239 155.633 7.09943 155.949 7.13352C156.264 7.16761 156.541 7.21449 156.779 7.27415V12.1065C156.524 12.0298 156.17 11.9616 155.718 11.902C155.267 11.8423 154.853 11.8125 154.478 11.8125C153.677 11.8125 152.961 11.9872 152.331 12.3366C151.708 12.6776 151.214 13.1548 150.848 13.7685C150.49 14.3821 150.311 15.0895 150.311 15.8906V27H144.865ZM167.63 27.3835C165.61 27.3835 163.871 26.9744 162.414 26.1562C160.965 25.3295 159.849 24.1619 159.065 22.6534C158.281 21.1364 157.888 19.3423 157.888 17.2713C157.888 15.2514 158.281 13.4787 159.065 11.9531C159.849 10.4276 160.952 9.23864 162.376 8.38636C163.808 7.53409 165.487 7.10795 167.413 7.10795C168.708 7.10795 169.914 7.31676 171.031 7.73438C172.156 8.14347 173.136 8.76136 173.971 9.58807C174.815 10.4148 175.471 11.4545 175.94 12.7074C176.408 13.9517 176.643 15.4091 176.643 17.0795V18.5753H160.062V15.2003H171.516C171.516 14.4162 171.346 13.7216 171.005 13.1165C170.664 12.5114 170.191 12.0384 169.586 11.6974C168.989 11.348 168.295 11.1733 167.502 11.1733C166.675 11.1733 165.942 11.3651 165.303 11.7486C164.673 12.1236 164.178 12.6307 163.82 13.2699C163.462 13.9006 163.279 14.6037 163.271 15.3793V18.5881C163.271 19.5597 163.45 20.3991 163.808 21.1065C164.174 21.8139 164.69 22.3594 165.354 22.7429C166.019 23.1264 166.808 23.3182 167.719 23.3182C168.325 23.3182 168.879 23.233 169.381 23.0625C169.884 22.892 170.315 22.6364 170.673 22.2955C171.031 21.9545 171.303 21.5369 171.491 21.0426L176.528 21.375C176.272 22.5852 175.748 23.642 174.955 24.5455C174.171 25.4403 173.157 26.1392 171.913 26.642C170.677 27.1364 169.249 27.3835 167.63 27.3835ZM185.643 15.6477V27H180.197V7.36364H185.387V10.8281H185.617C186.052 9.68608 186.781 8.78267 187.803 8.1179C188.826 7.4446 190.066 7.10795 191.523 7.10795C192.887 7.10795 194.076 7.40625 195.09 8.00284C196.104 8.59943 196.893 9.4517 197.455 10.5597C198.018 11.6591 198.299 12.9716 198.299 14.4972V27H192.853V15.4688C192.862 14.267 192.555 13.3295 191.933 12.6562C191.31 11.9744 190.454 11.6335 189.363 11.6335C188.63 11.6335 187.982 11.7912 187.42 12.1065C186.866 12.4219 186.431 12.8821 186.116 13.4872C185.809 14.0838 185.651 14.804 185.643 15.6477ZM211.463 27.3835C209.452 27.3835 207.722 26.9574 206.273 26.1051C204.833 25.2443 203.725 24.0511 202.949 22.5256C202.182 21 201.799 19.2443 201.799 17.2585C201.799 15.2472 202.186 13.483 202.962 11.9659C203.746 10.4403 204.858 9.25142 206.299 8.39915C207.739 7.53835 209.452 7.10795 211.438 7.10795C213.151 7.10795 214.651 7.41903 215.938 8.04119C217.225 8.66335 218.243 9.53693 218.993 10.6619C219.743 11.7869 220.157 13.108 220.233 14.625H215.094C214.949 13.6449 214.566 12.8565 213.944 12.2599C213.33 11.6548 212.525 11.3523 211.527 11.3523C210.684 11.3523 209.946 11.5824 209.316 12.0426C208.694 12.4943 208.208 13.1548 207.858 14.0241C207.509 14.8935 207.334 15.946 207.334 17.1818C207.334 18.4347 207.505 19.5 207.846 20.3778C208.195 21.2557 208.685 21.9247 209.316 22.3849C209.946 22.8452 210.684 23.0753 211.527 23.0753C212.15 23.0753 212.708 22.9474 213.202 22.6918C213.705 22.4361 214.118 22.0653 214.442 21.5795C214.775 21.0852 214.992 20.4929 215.094 19.8026H220.233C220.148 21.3026 219.739 22.6236 219.006 23.7656C218.282 24.8991 217.28 25.7855 216.002 26.4247C214.723 27.0639 213.211 27.3835 211.463 27.3835ZM227.082 34.3636C226.392 34.3636 225.744 34.3082 225.139 34.1974C224.543 34.0952 224.048 33.9631 223.656 33.8011L224.884 29.7358C225.523 29.9318 226.098 30.0384 226.609 30.0554C227.129 30.0724 227.577 29.9531 227.952 29.6974C228.335 29.4418 228.646 29.0071 228.885 28.3935L229.205 27.5625L222.161 7.36364H227.888L231.953 21.7841H232.158L236.261 7.36364H242.027L234.395 29.1222C234.028 30.179 233.53 31.0994 232.899 31.8835C232.277 32.6761 231.489 33.2855 230.534 33.7116C229.58 34.1463 228.429 34.3636 227.082 34.3636Z" fill="url(#paint0_linear_28_224)"/>
<defs>
<linearGradient id="paint0_linear_28_224" x1="181.667" y1="-23.9375" x2="60.3769" y2="19.2302" gradientUnits="userSpaceOnUse">
<stop stop-color="#D96CFF"/>
<stop offset="0.963542" stop-color="#30BBDA"/>
</linearGradient>
</defs>
</svg>
