<svg width="190" height="35" viewBox="0 0 190 35" fill="none" xmlns="http://www.w3.org/2000/svg">
<path d="M7.98349 27L0.49201 0.818181H6.53889L10.8727 19.0099H11.09L15.8713 0.818181H21.0488L25.8173 19.0483H26.0474L30.3812 0.818181H36.4281L28.9366 27H23.5417L18.5559 9.8821H18.3514L13.3784 27H7.98349ZM42.7786 27.3707C41.5257 27.3707 40.4093 27.1534 39.4292 26.7188C38.449 26.2756 37.6735 25.6236 37.1025 24.7628C36.54 23.8935 36.2587 22.8111 36.2587 21.5156C36.2587 20.4247 36.459 19.5085 36.8596 18.767C37.2601 18.0256 37.8056 17.429 38.4959 16.9773C39.1863 16.5256 39.9703 16.1847 40.8482 15.9545C41.7346 15.7244 42.6635 15.5625 43.6351 15.4688C44.7772 15.3494 45.6976 15.2386 46.3965 15.1364C47.0953 15.0256 47.6025 14.8636 47.9178 14.6506C48.2331 14.4375 48.3908 14.1222 48.3908 13.7045V13.6278C48.3908 12.8182 48.1351 12.1918 47.6238 11.7486C47.1209 11.3054 46.405 11.0838 45.476 11.0838C44.4959 11.0838 43.7161 11.3011 43.1365 11.7358C42.557 12.1619 42.1735 12.6989 41.986 13.3466L36.949 12.9375C37.2047 11.7443 37.7076 10.7131 38.4576 9.84375C39.2076 8.96591 40.1749 8.29261 41.3596 7.82386C42.5527 7.34659 43.9334 7.10795 45.5016 7.10795C46.5925 7.10795 47.6365 7.2358 48.6337 7.49148C49.6394 7.74716 50.53 8.14347 51.3056 8.6804C52.0897 9.21733 52.7076 9.90767 53.1593 10.7514C53.611 11.5866 53.8368 12.5881 53.8368 13.7557V27H48.6721V24.277H48.5186C48.2033 24.8906 47.7814 25.4318 47.253 25.9006C46.7246 26.3608 46.0897 26.723 45.3482 26.9872C44.6067 27.2429 43.7502 27.3707 42.7786 27.3707ZM44.3382 23.6122C45.1394 23.6122 45.8468 23.4545 46.4604 23.1392C47.074 22.8153 47.5556 22.3807 47.905 21.8352C48.2544 21.2898 48.4292 20.6719 48.4292 19.9815V17.8977C48.2587 18.0085 48.0243 18.1108 47.726 18.2045C47.4363 18.2898 47.1081 18.3707 46.7417 18.4474C46.3752 18.5156 46.0087 18.5795 45.6422 18.6392C45.2757 18.6903 44.9434 18.7372 44.6451 18.7798C44.0059 18.8736 43.4476 19.0227 42.9703 19.2273C42.4931 19.4318 42.1223 19.7088 41.8581 20.0582C41.5939 20.3991 41.4618 20.8253 41.4618 21.3366C41.4618 22.0781 41.7303 22.6449 42.2672 23.0369C42.8127 23.4205 43.503 23.6122 44.3382 23.6122ZM66.9086 34.7727C65.1444 34.7727 63.6316 34.5298 62.3702 34.044C61.1174 33.5668 60.1202 32.9148 59.3787 32.0881C58.6373 31.2614 58.1557 30.3324 57.9341 29.3011L62.9711 28.6236C63.1245 29.0156 63.3674 29.3821 63.6998 29.723C64.0321 30.0639 64.4711 30.3366 65.0165 30.5412C65.5705 30.7543 66.2438 30.8608 67.0364 30.8608C68.2211 30.8608 69.1969 30.571 69.964 29.9915C70.7395 29.4205 71.1273 28.4616 71.1273 27.1151V23.5227H70.8972C70.6586 24.0682 70.3006 24.5838 69.8233 25.0696C69.3461 25.5554 68.7324 25.9517 67.9824 26.2585C67.2324 26.5653 66.3375 26.7188 65.2978 26.7188C63.8233 26.7188 62.481 26.3778 61.2708 25.696C60.0691 25.0057 59.1103 23.9531 58.3944 22.5384C57.687 21.1151 57.3333 19.3168 57.3333 17.1435C57.3333 14.919 57.6955 13.0611 58.4199 11.5696C59.1444 10.0781 60.1074 8.96165 61.3091 8.22017C62.5194 7.47869 63.8446 7.10795 65.285 7.10795C66.3844 7.10795 67.3049 7.29545 68.0463 7.67045C68.7878 8.03693 69.3844 8.49716 69.8361 9.05114C70.2963 9.59659 70.65 10.1335 70.8972 10.6619H71.1017V7.36364H76.5094V27.1918C76.5094 28.8622 76.1003 30.2599 75.2821 31.3849C74.464 32.5099 73.3304 33.3537 71.8816 33.9162C70.4412 34.4872 68.7836 34.7727 66.9086 34.7727ZM67.0236 22.6278C67.9015 22.6278 68.6429 22.4105 69.248 21.9759C69.8617 21.5327 70.3304 20.902 70.6543 20.0838C70.9867 19.2571 71.1529 18.2685 71.1529 17.1179C71.1529 15.9673 70.9909 14.9702 70.6671 14.1264C70.3432 13.2741 69.8745 12.6136 69.2608 12.1449C68.6472 11.6761 67.9015 11.4418 67.0236 11.4418C66.1287 11.4418 65.3745 11.6847 64.7608 12.1705C64.1472 12.6477 63.6827 13.3125 63.3674 14.1648C63.052 15.017 62.8944 16.0014 62.8944 17.1179C62.8944 18.2514 63.052 19.2315 63.3674 20.0582C63.6912 20.8764 64.1557 21.5114 64.7608 21.9631C65.3745 22.4062 66.1287 22.6278 67.0236 22.6278ZM89.7921 27.3835C87.7722 27.3835 86.0336 26.9744 84.5762 26.1562C83.1273 25.3295 82.0108 24.1619 81.2267 22.6534C80.4426 21.1364 80.0506 19.3423 80.0506 17.2713C80.0506 15.2514 80.4426 13.4787 81.2267 11.9531C82.0108 10.4276 83.1145 9.23864 84.5378 8.38636C85.9696 7.53409 87.6486 7.10795 89.5748 7.10795C90.8702 7.10795 92.0762 7.31676 93.1926 7.73438C94.3176 8.14347 95.2978 8.76136 96.133 9.58807C96.9767 10.4148 97.633 11.4545 98.1017 12.7074C98.5705 13.9517 98.8049 15.4091 98.8049 17.0795V18.5753H82.2239V15.2003H93.6784C93.6784 14.4162 93.508 13.7216 93.1671 13.1165C92.8262 12.5114 92.3532 12.0384 91.748 11.6974C91.1515 11.348 90.4569 11.1733 89.6642 11.1733C88.8375 11.1733 88.1046 11.3651 87.4654 11.7486C86.8347 12.1236 86.3404 12.6307 85.9824 13.2699C85.6245 13.9006 85.4412 14.6037 85.4327 15.3793V18.5881C85.4327 19.5597 85.6117 20.3991 85.9696 21.1065C86.3361 21.8139 86.8517 22.3594 87.5165 22.7429C88.1813 23.1264 88.9696 23.3182 89.8816 23.3182C90.4867 23.3182 91.0407 23.233 91.5435 23.0625C92.0463 22.892 92.4767 22.6364 92.8347 22.2955C93.1926 21.9545 93.4654 21.5369 93.6529 21.0426L98.6898 21.375C98.4341 22.5852 97.91 23.642 97.1174 24.5455C96.3333 25.4403 95.3191 26.1392 94.0748 26.642C92.839 27.1364 91.4114 27.3835 89.7921 27.3835ZM105.363 0.818181L111.691 20.7102H111.934L118.275 0.818181H124.411L115.386 27H108.252L99.214 0.818181H105.363ZM130.88 27.3707C129.627 27.3707 128.511 27.1534 127.531 26.7188C126.551 26.2756 125.775 25.6236 125.204 24.7628C124.642 23.8935 124.36 22.8111 124.36 21.5156C124.36 20.4247 124.561 19.5085 124.961 18.767C125.362 18.0256 125.907 17.429 126.597 16.9773C127.288 16.5256 128.072 16.1847 128.95 15.9545C129.836 15.7244 130.765 15.5625 131.737 15.4688C132.879 15.3494 133.799 15.2386 134.498 15.1364C135.197 15.0256 135.704 14.8636 136.019 14.6506C136.335 14.4375 136.492 14.1222 136.492 13.7045V13.6278C136.492 12.8182 136.237 12.1918 135.725 11.7486C135.222 11.3054 134.507 11.0838 133.578 11.0838C132.597 11.0838 131.818 11.3011 131.238 11.7358C130.659 12.1619 130.275 12.6989 130.088 13.3466L125.051 12.9375C125.306 11.7443 125.809 10.7131 126.559 9.84375C127.309 8.96591 128.276 8.29261 129.461 7.82386C130.654 7.34659 132.035 7.10795 133.603 7.10795C134.694 7.10795 135.738 7.2358 136.735 7.49148C137.741 7.74716 138.632 8.14347 139.407 8.6804C140.191 9.21733 140.809 9.90767 141.261 10.7514C141.713 11.5866 141.938 12.5881 141.938 13.7557V27H136.774V24.277H136.62C136.305 24.8906 135.883 25.4318 135.355 25.9006C134.826 26.3608 134.191 26.723 133.45 26.9872C132.708 27.2429 131.852 27.3707 130.88 27.3707ZM132.44 23.6122C133.241 23.6122 133.948 23.4545 134.562 23.1392C135.176 22.8153 135.657 22.3807 136.007 21.8352C136.356 21.2898 136.531 20.6719 136.531 19.9815V17.8977C136.36 18.0085 136.126 18.1108 135.828 18.2045C135.538 18.2898 135.21 18.3707 134.843 18.4474C134.477 18.5156 134.11 18.5795 133.744 18.6392C133.377 18.6903 133.045 18.7372 132.747 18.7798C132.107 18.8736 131.549 19.0227 131.072 19.2273C130.595 19.4318 130.224 19.7088 129.96 20.0582C129.695 20.3991 129.563 20.8253 129.563 21.3366C129.563 22.0781 129.832 22.6449 130.369 23.0369C130.914 23.4205 131.605 23.6122 132.44 23.6122ZM158.756 18.6392V7.36364H164.202V27H158.973V23.4332H158.769C158.325 24.5838 157.588 25.5085 156.557 26.2074C155.534 26.9062 154.286 27.2557 152.811 27.2557C151.499 27.2557 150.344 26.9574 149.347 26.3608C148.35 25.7642 147.57 24.9162 147.007 23.8168C146.453 22.7173 146.172 21.4006 146.164 19.8665V7.36364H151.61V18.8949C151.618 20.054 151.929 20.9702 152.543 21.6435C153.156 22.3168 153.979 22.6534 155.01 22.6534C155.666 22.6534 156.28 22.5043 156.851 22.206C157.422 21.8991 157.882 21.4474 158.232 20.8509C158.59 20.2543 158.764 19.517 158.756 18.6392ZM174.004 0.818181V27H168.558V0.818181H174.004ZM188.811 7.36364V11.4545H176.986V7.36364H188.811ZM179.671 2.65909H185.117V20.9659C185.117 21.4687 185.193 21.8608 185.347 22.142C185.5 22.4148 185.713 22.6065 185.986 22.7173C186.267 22.8281 186.591 22.8835 186.958 22.8835C187.213 22.8835 187.469 22.8622 187.725 22.8196C187.98 22.7685 188.176 22.7301 188.313 22.7045L189.169 26.7571C188.896 26.8423 188.513 26.9403 188.019 27.0511C187.524 27.1705 186.923 27.2429 186.216 27.2685C184.904 27.3196 183.753 27.1449 182.764 26.7443C181.784 26.3437 181.021 25.7216 180.476 24.8778C179.931 24.0341 179.662 22.9687 179.671 21.6818V2.65909Z" fill="url(#paint0_linear_28_224)"/>
<defs>
<linearGradient id="paint0_linear_28_224" x1="155.667" y1="-23.9375" x2="34.3769" y2="19.2302" gradientUnits="userSpaceOnUse">
<stop stop-color="#D96CFF"/>
<stop offset="0.963542" stop-color="#30BBDA"/>
</linearGradient>
</defs>
</svg>
